<svg width="132" height="35" viewBox="0 0 132 35" fill="none" xmlns="http://www.w3.org/2000/svg">
<path d="M16.8693 0.0138722C17.512 0.0971052 18.169 0.152594 18.8117 0.291316C24.8246 1.55368 28.8237 5.06334 30.9089 10.64C31.1946 11.4168 31.3231 12.2491 31.4945 13.0676C31.5802 13.4976 31.4945 13.5809 31.0374 13.5809C29.7092 13.5809 28.3809 13.6641 27.0527 13.567C24.0534 13.3312 21.1683 12.6514 18.5261 11.1671C16.8408 10.2099 15.1269 10.1822 13.4273 11.1671C11.642 12.1936 10.5279 13.6363 10.5422 15.731C10.5422 16.1056 10.6279 16.5079 10.7707 16.8408C11.4991 18.5471 12.6132 19.9066 14.5127 20.4753C16.0267 20.9192 17.4549 20.6002 18.7974 19.8927C20.797 18.8384 22.8965 18.0754 25.1531 17.8396C26.9384 17.6454 28.7523 17.5899 30.5518 17.5206C31.2945 17.4928 31.523 17.7841 31.4659 18.5194C31.2517 20.9747 30.2376 23.0972 28.6237 24.9699C26.2814 27.6889 23.4249 29.6726 19.8258 30.5465C16.498 31.3511 13.1702 31.3927 9.98521 30.0333C5.34344 28.0357 1.95852 24.7896 0.630254 19.9759C-1.79775 11.1116 3.04398 3.48192 10.785 0.901691C12.1847 0.430037 13.6415 0.166466 15.1269 0.0693609C15.2268 0.0693609 15.3268 0.0277443 15.4411 0H16.8836L16.8693 0.0138722Z" fill="url(#paint0_linear_2195_670)"/>
<path d="M132 25.8161C131.871 26.2462 131.571 26.3988 131.114 26.3988C129.829 26.3849 128.558 26.3849 127.286 26.3849C126.629 26.3849 126.529 26.2323 126.501 25.5942C126.487 24.9561 126.401 24.3318 126.329 23.6937C126.329 23.6105 126.201 23.4717 126.144 23.4717C126.03 23.4717 125.901 23.5411 125.815 23.6243C125.487 23.9711 125.215 24.3734 124.858 24.7064C123.702 25.7606 122.288 26.2878 120.745 26.5375C118.174 26.9675 115.703 26.6762 113.318 25.6358C111.661 24.9144 110.476 23.6937 109.562 22.2094C106.977 18.02 106.877 13.7057 109.219 9.4331C110.819 6.53382 113.575 5.06337 116.875 4.53623C119.031 4.18942 121.159 4.38363 123.187 5.29919C124.087 5.71536 124.858 6.28412 125.544 6.97773C125.658 7.08871 125.801 7.17194 125.944 7.25517C125.972 7.2413 126.015 7.21355 126.058 7.19968C126.101 6.68641 126.172 6.17314 126.172 5.65987C126.172 4.99401 126.301 4.86916 126.986 4.86916H131.214C131.614 4.86916 131.885 4.96626 132 5.35468V9.53021C131.985 9.64118 131.942 9.75216 131.942 9.86314V23.4579C131.942 23.5688 131.985 23.6798 132 23.7908V25.8161ZM126.001 15.634H125.944C125.915 15.2039 125.901 14.7739 125.844 14.3577C125.53 11.833 124.273 10.0296 121.688 9.23889C118.574 8.29558 115.475 9.65506 114.332 12.5266C113.647 14.2467 113.647 16.0363 114.032 17.8258C114.247 18.8384 114.689 19.7679 115.446 20.517C117.132 22.1816 119.16 22.5146 121.416 21.9735C123.616 21.4464 125.001 20.1008 125.601 18.0061C125.815 17.2431 125.872 16.4385 126.001 15.6478V15.634Z" fill="white"/>
<path d="M71.8422 20.5722C72.1422 19.8786 72.4849 19.185 72.7563 18.4775C74.0989 14.843 75.4414 11.2085 76.7697 7.57401C77.0553 6.81104 77.341 6.04807 77.6123 5.28511C77.7123 5.02153 77.8694 4.88281 78.1551 4.88281C80.0118 4.88281 81.8685 4.88281 83.7109 4.89668C83.7395 4.89668 83.7823 4.89668 83.868 4.92443C83.8252 5.06315 83.7823 5.188 83.7252 5.31285C81.34 11.0698 78.9406 16.8406 76.5554 22.5976C75.7413 24.5397 74.9701 26.4957 74.1274 28.4378C73.4847 29.936 72.5992 31.2954 71.4138 32.4607C69.8284 34.0144 67.8574 34.6941 65.658 34.8745C64.1583 34.9993 62.7015 34.8745 61.2733 34.4305C60.7877 34.278 60.7591 34.2363 60.9162 33.7647C61.2876 32.5855 61.6589 31.4203 62.0302 30.2411C62.1873 29.7279 62.3302 29.6446 62.8729 29.7972C64.2012 30.1579 65.5151 30.1718 66.8006 29.603C68.3002 28.9372 69.0143 27.2031 68.4002 25.7049C65.7437 19.3654 63.0871 13.0119 60.4306 6.67232C60.2735 6.2839 60.0878 5.90935 59.9307 5.52093C59.7165 5.03541 59.8022 4.88281 60.3449 4.88281H65.6151C67.3719 4.88281 66.2007 4.96605 66.3578 5.40996C67.5575 8.76702 68.7572 12.138 69.9427 15.495C70.514 17.0903 71.071 18.6995 71.6423 20.2948C71.6708 20.378 71.7137 20.4613 71.7423 20.5584C71.7708 20.5584 71.7994 20.5722 71.8422 20.5861V20.5722Z" fill="white"/>
<path d="M90.8247 7.82381C91.0818 7.54637 91.3531 7.26893 91.5959 6.97761C92.9099 5.4378 94.6524 4.67483 96.6662 4.48062C98.1944 4.3419 99.7226 4.38351 101.208 4.88291C104.036 5.84009 105.95 8.43419 105.964 11.3335C105.993 16.0916 106.007 20.8637 106.021 25.6357C106.021 26.3293 105.964 26.3848 105.25 26.3848H100.879C100.251 26.3848 100.094 26.2461 100.094 25.6218C100.094 23.9017 100.137 22.1954 100.137 20.4752C100.137 18.1863 100.137 15.9113 100.08 13.6224C100.08 12.9704 99.9511 12.3045 99.7797 11.6664C99.3227 9.98787 98.2515 9.19716 96.4662 9.1278C93.6098 9.01682 91.5531 10.8757 91.3817 13.6501C91.1389 17.4788 91.3103 21.3214 91.296 25.164C91.296 25.3999 91.296 25.6218 91.2817 25.8576C91.2674 26.2461 91.1675 26.3432 90.7533 26.357C90.282 26.3709 89.7964 26.357 89.325 26.357H85.9972C84.8975 26.357 85.2546 26.2599 85.2546 25.6357V5.67363C85.2546 4.96615 85.326 4.89679 86.0401 4.88291H90.0249C90.5105 4.88291 90.6247 4.98002 90.6533 5.4378C90.6962 6.22851 90.739 7.00536 90.7818 7.79607C90.8104 7.79607 90.839 7.82381 90.8675 7.82381H90.8247Z" fill="white"/>
<path d="M51.348 26.7455C49.2057 26.6623 47.1204 26.3848 45.2066 25.3722C42.293 23.8324 40.5077 21.4741 39.7936 18.3251C39.0366 15.0097 39.5365 11.8884 41.4218 9.01688C42.7786 6.94993 44.8067 5.70143 47.1633 4.95233C50.4768 3.89805 53.7046 4.23098 56.8182 5.64594C58.6892 6.49214 59.946 8.01808 60.9886 9.69662C61.1457 9.94631 61.0743 10.1683 60.803 10.2931C59.4604 10.9174 58.1321 11.5416 56.7896 12.152C56.4325 12.3185 56.2326 12.1104 56.0755 11.8329C55.6899 11.1532 55.19 10.5567 54.533 10.1128C52.5763 8.76718 50.5054 8.69782 48.3916 9.66887C47.349 10.1405 46.692 11.0145 46.2921 12.041C45.5208 14.0386 45.378 16.0778 46.0064 18.1448C46.6491 20.2533 48.1345 21.4186 50.3625 21.7654C52.462 22.0845 54.2902 21.5018 55.8612 20.1562C56.0469 19.9898 56.2326 19.8233 56.404 19.6568C56.6468 19.4349 56.9039 19.421 57.1752 19.6291C58.3035 20.503 59.4176 21.3631 60.5459 22.2232C60.7744 22.4035 60.7887 22.57 60.603 22.7781C58.832 24.8034 56.6325 26.149 53.9046 26.5513C53.0619 26.6762 52.2192 26.6762 51.3766 26.7455H51.348Z" fill="white"/>
<defs>
<linearGradient id="paint0_linear_2195_670" x1="0.000400628" y1="15.5563" x2="31.5245" y2="15.5563" gradientUnits="userSpaceOnUse">
<stop stop-color="#302082"/>
<stop offset="1" stop-color="#7C00FF"/>
</linearGradient>
</defs>
</svg>
